<?xml version="1.0" encoding="iso-8859-1"?>
<!-- Generator: Adobe Illustrator 19.0.0, SVG Export Plug-In . SVG Version: 6.00 Build 0)  -->
<svg version="1.1" id="Capa_1" xmlns="http://www.w3.org/2000/svg" xmlns:xlink="http://www.w3.org/1999/xlink" x="0px" y="0px"
	 viewBox="0 0 512.001 512.001" style="enable-background:new 0 0 512.001 512.001;" xml:space="preserve">
<g>
	<path style="fill:#B24D40;" d="M489.98,131.146H22.019c-8.019,0-14.52,6.501-14.52,14.52v46.019c0,8.019,6.501,14.52,14.52,14.52
		H489.98c8.019,0,14.52-6.501,14.52-14.52v-46.019C504.5,137.646,497.999,131.146,489.98,131.146z"/>
	<path style="fill:#B24D40;" d="M489.98,326.484H22.019c-8.019,0-14.52,6.501-14.52,14.52v46.019c0,8.019,6.501,14.52,14.52,14.52
		H489.98c8.019,0,14.52-6.501,14.52-14.52v-46.019C504.5,332.984,497.999,326.484,489.98,326.484z"/>
</g>
<path style="fill:#C86D5C;" d="M304.043,107.783l-30.152-23.089c-10.557-8.084-25.224-8.084-35.782,0l-30.152,23.089
	c-7.272,5.568-11.536,14.205-11.536,23.363v285.677c0,9.139,7.409,16.548,16.548,16.548h86.061c9.139,0,16.548-7.409,16.548-16.548
	V131.146C315.579,121.988,311.314,113.35,304.043,107.783z"/>
<g>
	<circle style="fill:#B3B3B3;" cx="256" cy="164.131" r="16.494"/>
	<circle style="fill:#B3B3B3;" cx="256" cy="364.01" r="16.494"/>
</g>
<path style="fill:#C86D5C;" d="M141.796,107.783l-30.152-23.089c-10.557-8.084-25.224-8.084-35.782,0L45.71,107.783
	c-7.272,5.568-11.536,14.205-11.536,23.363v285.677c0,9.139,7.409,16.548,16.548,16.548h86.061c9.139,0,16.548-7.409,16.548-16.548
	V131.146C153.331,121.988,149.067,113.35,141.796,107.783z"/>
<g>
	<circle style="fill:#B3B3B3;" cx="93.75" cy="164.131" r="16.494"/>
	<circle style="fill:#B3B3B3;" cx="93.75" cy="364.01" r="16.494"/>
</g>
<path style="fill:#C86D5C;" d="M370.204,107.783l30.152-23.089c10.557-8.084,25.224-8.084,35.782,0l30.152,23.089
	c7.272,5.568,11.536,14.205,11.536,23.363v285.677c0,9.139-7.409,16.548-16.548,16.548h-86.061c-9.139,0-16.548-7.409-16.548-16.548
	V131.146C358.668,121.988,362.933,113.35,370.204,107.783z"/>
<g>
	<circle style="fill:#B3B3B3;" cx="418.25" cy="164.131" r="16.494"/>
	<circle style="fill:#B3B3B3;" cx="418.25" cy="364.01" r="16.494"/>
</g>
<path d="M256,140.14c-13.23,0-23.994,10.763-23.994,23.994S242.77,188.127,256,188.127c13.23,0,23.994-10.763,23.994-23.994
	S269.23,140.14,256,140.14z M256,173.127c-4.959,0-8.994-4.035-8.994-8.994s4.035-8.994,8.994-8.994
	c4.959,0,8.994,4.035,8.994,8.994S260.959,173.127,256,173.127z"/>
<path d="M256,340.02c-13.23,0-23.994,10.763-23.994,23.994S242.77,388.007,256,388.007c13.23,0,23.994-10.763,23.994-23.994
	S269.23,340.02,256,340.02z M256,373.007c-4.959,0-8.994-4.035-8.994-8.994s4.035-8.994,8.994-8.994
	c4.959,0,8.994,4.035,8.994,8.994S260.959,373.007,256,373.007z"/>
<path d="M93.753,188.127c13.23,0,23.994-10.763,23.994-23.994s-10.763-23.994-23.994-23.994s-23.994,10.763-23.994,23.994
	S80.522,188.127,93.753,188.127z M93.753,155.14c4.959,0,8.994,4.035,8.994,8.994s-4.034,8.994-8.994,8.994
	s-8.994-4.035-8.994-8.994S88.793,155.14,93.753,155.14z"/>
<path d="M93.753,388.007c13.23,0,23.994-10.763,23.994-23.994s-10.763-23.994-23.994-23.994s-23.994,10.763-23.994,23.994
	S80.522,388.007,93.753,388.007z M93.753,355.02c4.959,0,8.994,4.035,8.994,8.994s-4.034,8.994-8.994,8.994
	s-8.994-4.035-8.994-8.994S88.793,355.02,93.753,355.02z"/>
<path d="M418.247,140.14c-13.23,0-23.994,10.763-23.994,23.994s10.764,23.994,23.994,23.994s23.994-10.763,23.994-23.994
	S431.477,140.14,418.247,140.14z M418.247,173.127c-4.959,0-8.994-4.035-8.994-8.994s4.035-8.994,8.994-8.994
	s8.994,4.035,8.994,8.994S423.206,173.127,418.247,173.127z"/>
<path d="M418.247,340.02c-13.23,0-23.994,10.763-23.994,23.994s10.764,23.994,23.994,23.994s23.994-10.763,23.994-23.994
	S431.477,340.02,418.247,340.02z M418.247,373.007c-4.959,0-8.994-4.035-8.994-8.994s4.035-8.994,8.994-8.994
	s8.994,4.035,8.994,8.994S423.206,373.007,418.247,373.007z"/>
<path d="M470.326,232.551c0,4.142,3.358,7.5,7.5,7.5s7.5-3.358,7.5-7.5v-18.847h4.655c12.142,0,22.02-9.878,22.02-22.02v-46.019
	c0-12.142-9.878-22.02-22.02-22.02h-5.452c-1.803-8.585-6.629-16.419-13.679-21.818l-30.152-23.089
	c-13.22-10.123-31.683-10.122-44.902,0l-30.152,23.089c-7.05,5.399-11.876,13.232-13.679,21.818h-29.684
	c-1.803-8.585-6.629-16.419-13.679-21.818L278.45,78.738c-6.407-4.906-14.381-7.609-22.451-7.609s-16.043,2.703-22.451,7.609
	l-30.152,23.089c-7.05,5.399-11.876,13.233-13.679,21.818h-29.683c-1.803-8.585-6.629-16.419-13.679-21.818l-30.152-23.089
	c-13.219-10.123-31.683-10.123-44.901,0L41.15,101.829c-7.051,5.399-11.876,13.233-13.679,21.818H22.02
	c-12.142,0-22.02,9.878-22.02,22.02v46.019c0,12.142,9.878,22.02,22.02,22.02h4.654v49.847c0,4.142,3.358,7.5,7.5,7.5
	s7.5-3.358,7.5-7.5V131.146c0-6.779,3.213-13.287,8.596-17.409l30.152-23.089c7.85-6.011,18.813-6.01,26.662,0l30.152,23.089
	c5.383,4.122,8.596,10.63,8.596,17.409v285.677c0,4.989-4.059,9.048-9.048,9.048H50.722c-4.989,0-9.048-4.059-9.048-9.048V293.55
	c0-4.142-3.358-7.5-7.5-7.5s-7.5,3.358-7.5,7.5v25.434H22.02c-12.142,0-22.02,9.878-22.02,22.02v46.019
	c0,12.142,9.878,22.02,22.02,22.02h4.654v7.781c0,13.26,10.788,24.048,24.048,24.048h86.061c13.26,0,24.048-10.788,24.048-24.048
	v-7.781h28.09v7.781c0,13.26,10.788,24.048,24.048,24.048h86.061c13.26,0,24.048-10.788,24.048-24.048v-7.781h28.09v7.781
	c0,13.26,10.788,24.048,24.048,24.048h86.061c13.26,0,24.048-10.788,24.048-24.048v-7.781h4.655c12.142,0,22.02-9.878,22.02-22.02
	v-46.019c0-12.142-9.878-22.02-22.02-22.02h-4.655V262.55c0-4.142-3.358-7.5-7.5-7.5s-7.5,3.358-7.5,7.5v154.272
	c0,4.989-4.059,9.048-9.048,9.048h-86.061c-4.989,0-9.048-4.059-9.048-9.048V131.146c0-6.779,3.213-13.287,8.596-17.409
	l30.151-23.089c7.85-6.01,18.813-6.011,26.662,0l30.152,23.089c5.383,4.122,8.596,10.63,8.596,17.409L470.326,232.551
	L470.326,232.551z M22.02,198.704c-3.871,0-7.02-3.149-7.02-7.02v-46.019c0-3.871,3.149-7.02,7.02-7.02h4.654v60.058H22.02V198.704z
	 M22.02,394.042c-3.871,0-7.02-3.149-7.02-7.02v-46.019c0-3.871,3.149-7.02,7.02-7.02h4.654v60.058L22.02,394.042L22.02,394.042z
	 M489.98,333.984c3.871,0,7.02,3.149,7.02,7.02v46.019c0,3.871-3.149,7.02-7.02,7.02h-4.655v-60.058L489.98,333.984L489.98,333.984z
	 M323.079,213.704h28.09v105.281h-28.09V213.704z M351.168,198.704h-28.09v-60.058h28.09V198.704z M188.921,138.646v60.058h-28.089
	v-60.058H188.921z M188.921,394.042h-28.089v-60.058h28.089V394.042z M160.832,318.984V213.704h28.09v105.281H160.832z
	 M308.079,416.822c0,4.989-4.059,9.048-9.048,9.048H212.97c-4.989,0-9.048-4.059-9.048-9.048V131.146
	c0-6.779,3.213-13.287,8.596-17.409l30.152-23.089c3.859-2.956,8.469-4.518,13.331-4.518s9.472,1.563,13.332,4.518l30.151,23.089
	c5.383,4.122,8.596,10.63,8.596,17.409L308.079,416.822L308.079,416.822z M323.079,394.042v-60.058h28.09v60.058H323.079z
	 M497,145.665v46.019c0,3.871-3.149,7.02-7.02,7.02h-4.655v-60.058h4.655C493.851,138.646,497,141.795,497,145.665z"/>
<g>
</g>
<g>
</g>
<g>
</g>
<g>
</g>
<g>
</g>
<g>
</g>
<g>
</g>
<g>
</g>
<g>
</g>
<g>
</g>
<g>
</g>
<g>
</g>
<g>
</g>
<g>
</g>
<g>
</g>
</svg>
