<?xml version="1.0" encoding="iso-8859-1"?>
<!-- Generator: Adobe Illustrator 19.0.0, SVG Export Plug-In . SVG Version: 6.00 Build 0)  -->
<svg version="1.1" id="Capa_1" xmlns="http://www.w3.org/2000/svg" xmlns:xlink="http://www.w3.org/1999/xlink" x="0px" y="0px"
	 viewBox="0 0 512.001 512.001" style="enable-background:new 0 0 512.001 512.001;" xml:space="preserve">
<g>
	<path style="fill:#00A6C8;" d="M417.082,304.207c-3.444,0.001-6.905-1.176-9.734-3.582c-6.325-5.379-7.09-14.867-1.711-21.193
		l62.317-73.264c6.863-8.069,8.441-19.503,4.02-29.13l-29.477-64.186c-4.446-9.679-14.2-15.933-24.851-15.933
		c-11.087,0-21.001,6.615-25.254,16.854l-11.14,26.817c-3.185,7.668-11.982,11.302-19.652,8.115
		c-7.668-3.185-11.301-11.984-8.116-19.652l11.14-26.816c8.93-21.498,29.743-35.388,53.022-35.388
		c22.362,0,42.842,13.131,52.174,33.452l29.477,64.186c9.283,20.212,5.97,44.218-8.44,61.161l-62.317,73.265
		C425.566,302.409,421.337,304.207,417.082,304.207z"/>
	<polygon style="fill:#00A6C8;" points="244.472,375.376 97.568,184.798 68.841,179.588 63.139,208.222 186.463,414.841 	"/>
</g>
<g>
	<path style="fill:#0095B3;" d="M144.944,246.259c-5.454,22.703-10.625,48.019-14.519,74.694l56.038,93.887l58.007-39.465
		L144.944,246.259z"/>
	<path style="fill:#0095B3;" d="M458.887,216.827l-53.25,62.606c-5.379,6.325-4.614,15.813,1.711,21.193
		c2.829,2.406,6.29,3.583,9.734,3.583c4.256,0,8.485-1.798,11.458-5.293l39.416-46.341
		C464.99,239.831,461.913,227.842,458.887,216.827z"/>
</g>
<path style="fill:#42C3E2;" d="M457.88,410.071c0-125.708-50.114-254.469-50.114-254.469l-107.073-17.539l-97.05,17.539
	c0,0-50.114,128.762-50.114,254.469l147.164,17.539L457.88,410.071z"/>
<path style="fill:#0095B3;" d="M366.335,98.505c-0.61,1.218-1.183,2.461-1.711,3.733l-11.14,26.816
	c-3.185,7.667,0.448,16.466,8.116,19.652c7.67,3.186,16.467-0.448,19.652-8.116l11.14-26.816c1.745-4.202,4.455-7.78,7.796-10.554
	L366.335,98.505z"/>
<g>
	<path style="fill:#00A6C8;" d="M407.766,120.521H203.643c-9.687,0-17.539,7.853-17.539,17.539l0,0
		c0,9.687,7.853,17.539,17.539,17.539h204.123c9.687,0,17.539-7.853,17.539-17.539l0,0
		C425.305,128.374,417.453,120.521,407.766,120.521z"/>
	<path style="fill:#00A6C8;" d="M457.88,410.071H153.528c-9.687,0-17.539,7.853-17.539,17.539l0,0
		c0,9.687,7.853,17.539,17.539,17.539h304.351c9.687,0,17.539-7.853,17.539-17.539l0,0
		C475.42,417.923,467.566,410.071,457.88,410.071z"/>
</g>
<polygon style="fill:#0095B3;" points="90.56,149.146 97.568,184.798 63.139,208.222 32.551,188.611 52.535,155.62 "/>
<path style="fill:#42C3E2;" d="M32.551,188.611l58.007-39.465c7.323-4.982,9.22-14.956,4.238-22.28l0,0
	c-4.982-7.322-14.956-9.22-22.28-4.238L14.51,162.094c-7.323,4.982-9.22,14.956-4.238,22.28l0,0
	C15.254,191.695,25.229,193.593,32.551,188.611z"/>
<path d="M241.032,290.426c4.142,0,7.5-3.358,7.5-7.5v-11.704c0-4.142-3.358-7.5-7.5-7.5s-7.5,3.358-7.5,7.5v11.704
	C233.531,287.068,236.89,290.426,241.032,290.426z"/>
<path d="M370.372,290.426c4.142,0,7.5-3.358,7.5-7.5v-11.704c0-4.142-3.358-7.5-7.5-7.5c-4.142,0-7.5,3.358-7.5,7.5v11.704
	C362.872,287.068,366.23,290.426,370.372,290.426z"/>
<path d="M305.702,296.673c8.385,0,16.261-3.508,21.609-9.626c2.726-3.118,2.408-7.856-0.711-10.583
	c-3.119-2.727-7.856-2.408-10.583,0.711c-2.498,2.858-6.257,4.497-10.314,4.497c-4.057,0-7.816-1.639-10.314-4.498
	c-2.726-3.119-7.465-3.437-10.583-0.711c-3.119,2.726-3.438,7.464-0.711,10.583C289.44,293.164,297.316,296.673,305.702,296.673z"/>
<path d="M23.544,198.852c2.898,0.019,5.817-0.495,8.599-1.592l25.459,16.322l90.408,151.471
	c-1.083,12.812-1.768,25.744-1.938,38.651c-10.177,3.181-17.584,12.694-17.584,23.907c0,13.807,11.233,25.04,25.041,25.04h304.351
	c13.807,0,25.04-11.232,25.04-25.041c0-11.211-7.407-20.726-17.584-23.907c-0.548-41.409-6.344-83.065-13.832-120.211l45.067-52.984
	c16.292-19.155,20.039-46.298,9.542-69.15l-29.479-64.186c-10.552-22.977-33.707-37.823-58.99-37.823
	c-26.32,0-49.851,15.705-59.948,40.01l-5.675,13.66h-77.534c-4.142,0-7.5,3.358-7.5,7.5c0,4.142,3.358,7.5,7.5,7.5h133.278
	c5.536,0,10.039,4.504,10.039,10.04s-4.503,10.04-10.039,10.04H203.64c-5.536,0-10.039-4.504-10.039-10.04s4.503-10.04,10.039-10.04
	h40.844c4.142,0,7.5-3.358,7.5-7.5c0-4.142-3.358-7.5-7.5-7.5H203.64c-13.807,0-25.04,11.232-25.04,25.041
	c0,10.261,6.206,19.095,15.059,22.959c-5.569,15.603-17.934,52.347-28.674,98.958l-60.402-78.359l-5.837-29.694
	c3.007-3.216,5.069-7.207,5.912-11.638c1.175-6.176-0.126-12.439-3.662-17.638c-7.209-10.597-22.107-13.427-32.7-6.22L10.29,155.891
	c-10.73,7.3-13.52,21.969-6.221,32.7C8.483,195.081,15.938,198.802,23.544,198.852z M368.263,113.021l3.285-7.905
	c7.764-18.688,25.857-30.765,46.095-30.765c19.441,0,37.245,11.416,45.358,29.083l29.478,64.186
	c8.07,17.571,5.19,38.442-7.337,53.17l-37.512,44.103c-1.36-6.066-2.791-12.153-4.284-18.219l30.319-35.646
	c8.746-10.282,10.756-24.853,5.122-37.119l-29.478-64.186c-5.665-12.333-18.094-20.303-31.666-20.303
	c-14.129,0-26.761,8.431-32.181,21.479l-0.882,2.124h-16.317V113.021z M407.764,113.021h-6.469
	c3.649-5.323,9.705-8.602,16.348-8.602c7.729,0,14.808,4.539,18.034,11.563l29.478,64.187c3.208,6.985,2.063,15.283-2.917,21.141
	l-23.531,27.665c-8.452-31.67-16.699-56.007-20.964-67.953c8.853-3.864,15.059-12.698,15.059-22.959
	C432.803,124.254,421.57,113.021,407.764,113.021z M402.553,163.102c8.665,23.799,46.063,132.475,47.765,239.469h-36.495
	c-4.142,0-7.5,3.358-7.5,7.5c0,4.142,3.358,7.5,7.5,7.5h44.055c5.536,0,10.039,4.503,10.039,10.04
	c0,5.536-4.503,10.039-10.039,10.039H153.526c-5.536,0-10.04-4.504-10.04-10.04c0-5.536,4.504-10.039,10.04-10.039h230.295
	c4.142,0,7.5-3.358,7.5-7.5c0-4.142-3.358-7.5-7.5-7.5H161.087c0.238-14.952,1.174-29.938,2.63-44.72
	c0.011-0.113,0.021-0.225,0.032-0.338c9.002-90.86,37.657-173.963,45.102-194.412h193.702V163.102z M85.388,161.734l3.863,19.648
	l-26.237,17.85l-16.857-10.808L85.388,161.734z M150.574,340.083L73.199,210.447l22.742-15.472l64.788,84.05
	C156.403,299.949,153.004,320.394,150.574,340.083z M18.727,168.295c0,0,57.942-39.42,58.007-39.465
	c3.852-2.621,9.238-1.595,11.859,2.256c2.544,3.738,1.625,9.22-2.256,11.859c0,0-57.97,39.439-58.007,39.465
	c-3.85,2.619-9.241,1.593-11.859-2.256C13.823,176.263,14.836,170.943,18.727,168.295z"/>
<g>
</g>
<g>
</g>
<g>
</g>
<g>
</g>
<g>
</g>
<g>
</g>
<g>
</g>
<g>
</g>
<g>
</g>
<g>
</g>
<g>
</g>
<g>
</g>
<g>
</g>
<g>
</g>
<g>
</g>
</svg>
