<?xml version="1.0" encoding="iso-8859-1"?>
<!-- Generator: Adobe Illustrator 19.0.0, SVG Export Plug-In . SVG Version: 6.00 Build 0)  -->
<svg version="1.1" id="Capa_1" xmlns="http://www.w3.org/2000/svg" xmlns:xlink="http://www.w3.org/1999/xlink" x="0px" y="0px"
	 viewBox="0 0 511.999 511.999" style="enable-background:new 0 0 511.999 511.999;" xml:space="preserve">
<path style="fill:rgba(255,255,255,0);" d="M255.999,504.499c208.891,0,278.592-236.075,0-497C-22.593,268.424,47.108,504.499,255.999,504.499z"
	/>
<path style="fill:rgba(255,255,255,0);" d="M285.999,474.499c-199.026,0-271.696-214.306-37.156-460.225
	c-270.212,258.223-199.925,490.225,7.156,490.225c67.262,0,120.086-24.481,151.504-66.383
	C376.5,461.456,335.095,474.499,285.999,474.499z"/>
<path d="M398.511,449.265c3.066,2.527,7.907,2.198,10.558-1.019c38.867-47.17,48.414-114.523,26.883-189.651
	c-23.789-83.008-84.244-171.729-174.83-256.569c-2.885-2.701-7.369-2.701-10.254,0c-17.757,16.631-34.608,33.66-50.086,50.615
	c-2.792,3.059-2.577,7.803,0.482,10.596c3.06,2.792,7.803,2.577,10.596-0.482c13.719-15.028,28.544-30.123,44.135-44.943
	c85.759,81.502,142.942,166.075,165.537,244.916c20.129,70.239,11.592,132.737-24.04,175.981
	C394.858,441.904,395.315,446.631,398.511,449.265z"/>
<path d="M191.294,74.564c-3.164-2.673-7.896-2.275-10.569,0.889c-54.009,63.926-89.718,127.296-106.134,188.352
	c-15.094,56.138-12.726,108.097,6.849,150.26c28.894,62.238,92.517,97.934,174.555,97.934c52.02,0,97.22-14.376,130.712-41.575
	c3.215-2.611,3.705-7.334,1.094-10.55c-2.611-3.215-7.334-3.705-10.55-1.094c-30.788,25.003-72.718,38.219-121.256,38.219
	c-75.954,0-134.618-32.53-160.951-89.25c-18.072-38.928-20.136-87.356-5.969-140.049c15.84-58.912,50.53-120.336,103.106-182.566
	C194.856,81.97,194.458,77.238,191.294,74.564z"/>
<path d="M150.495,282.397v17.736c0,4.143,3.358,7.5,7.5,7.5s7.5-3.357,7.5-7.5v-17.736c0-4.142-3.358-7.5-7.5-7.5
	S150.495,278.255,150.495,282.397z"/>
<path d="M346.495,282.397v17.736c0,4.143,3.358,7.5,7.5,7.5s7.5-3.357,7.5-7.5v-17.736c0-4.142-3.358-7.5-7.5-7.5
	S346.495,278.255,346.495,282.397z"/>
<path d="M274.537,293.963c-4.521,5.171-11.279,8.138-18.541,8.138c-7.263,0-14.021-2.966-18.541-8.138
	c-2.726-3.119-7.465-3.437-10.583-0.711c-3.119,2.726-3.438,7.464-0.711,10.583c7.369,8.431,18.243,13.266,29.834,13.266
	s22.465-4.835,29.834-13.266c2.727-3.118,2.408-7.856-0.71-10.583S277.262,290.845,274.537,293.963z"/>
<g>
</g>
<g>
</g>
<g>
</g>
<g>
</g>
<g>
</g>
<g>
</g>
<g>
</g>
<g>
</g>
<g>
</g>
<g>
</g>
<g>
</g>
<g>
</g>
<g>
</g>
<g>
</g>
<g>
</g>
</svg>
