<?xml version="1.0" encoding="iso-8859-1"?>
<!-- Generator: Adobe Illustrator 19.0.0, SVG Export Plug-In . SVG Version: 6.00 Build 0)  -->
<svg version="1.1" id="Capa_1" xmlns="http://www.w3.org/2000/svg" xmlns:xlink="http://www.w3.org/1999/xlink" x="0px" y="0px"
	 viewBox="0 0 511.999 511.999" style="enable-background:new 0 0 511.999 511.999;" xml:space="preserve">
<g>
	<path style="fill:#2FC8B4;" d="M169.56,232.451c-47.404-44.649-101.015-71.953-145.002-77.63
		C14.323,153.5,5.83,162.517,7.761,172.656c8.297,43.569,38.758,95.452,86.161,140.1c54.484,51.318,117.17,79.724,164.017,78.712
		C256.148,344.644,224.045,283.769,169.56,232.451z"/>
	<path style="fill:#2FC8B4;" d="M487.442,154.822c-43.988,5.676-97.599,32.981-145.002,77.63
		c-54.484,51.318-86.587,112.193-88.378,159.017c46.847,1.012,109.533-27.394,164.017-78.712
		c47.404-44.649,77.866-96.532,86.161-140.1C506.17,162.518,497.677,153.5,487.442,154.822z"/>
</g>
<g>
	<path style="fill:#00AE95;" d="M241.372,210.298c-25.313-59.999-63.314-106.642-101.253-129.613
		c-8.829-5.345-20.241-0.53-22.573,9.524c-10.021,43.205-3.128,102.973,22.184,162.972
		c29.094,68.961,74.951,120.279,118.209,138.288C275.226,347.915,270.466,279.259,241.372,210.298z"/>
	<path style="fill:#00AE95;" d="M394.455,90.208c-2.332-10.054-13.745-14.869-22.573-9.524
		c-37.94,22.97-75.942,69.614-101.254,129.613c-29.094,68.961-33.854,137.617-16.567,181.17
		c43.259-18.009,89.115-69.327,118.209-138.288C397.583,193.181,404.476,133.413,394.455,90.208z"/>
</g>
<path style="fill:#2FC8B4;" d="M268.249,59.719c-6.056-8.357-18.443-8.357-24.499,0c-26.028,35.912-42.91,93.66-42.91,158.779
	c0,74.848,22.302,139.954,55.159,173.363c32.857-33.408,55.159-98.515,55.159-173.363
	C311.159,153.377,294.277,95.631,268.249,59.719z"/>
<path style="fill:#FF5E6B;" d="M23.234,309.617L69.791,414.96c11.711,26.497,37.951,43.589,66.92,43.589h6.966H368.32h6.966
	c28.969,0,55.209-17.092,66.92-43.589l46.558-105.343l-232.766-24.809L23.234,309.617z"/>
<path style="fill:#E63E4C;" d="M119.795,414.96L73.237,309.617l207.765-22.143L256,284.808L23.234,309.617L69.791,414.96
	c11.711,26.497,37.951,43.588,66.92,43.588h6.966h43.037C157.746,458.549,131.505,441.457,119.795,414.96z"/>
<path style="fill:#F0F0F0;" d="M488.767,260.001H23.234c-8.179,0-14.81,6.63-14.81,14.81v19.997c0,8.18,6.63,14.81,14.81,14.81
	h465.532c8.18,0,14.81-6.63,14.81-14.81v-19.997C503.576,266.631,496.945,260.001,488.767,260.001z"/>
<path style="fill:#D9D9D9;" d="M58.428,294.807V274.81c0-8.179,6.63-14.81,14.81-14.81H23.235c-8.179,0-14.81,6.63-14.81,14.81
	v19.997c0,8.18,6.63,14.81,14.81,14.81h50.003C65.058,309.617,58.428,302.986,58.428,294.807z"/>
<path d="M164.642,358.923c-4.142,0-7.5,3.358-7.5,7.5v16.534c0,4.142,3.358,7.5,7.5,7.5c4.142,0,7.5-3.358,7.5-7.5v-16.534
	C172.143,362.281,168.784,358.923,164.642,358.923z"/>
<path d="M347.357,358.923c-4.142,0-7.5,3.358-7.5,7.5v16.534c0,4.142,3.358,7.5,7.5,7.5s7.5-3.358,7.5-7.5v-16.534
	C354.858,362.281,351.499,358.923,347.357,358.923z"/>
<path d="M283.484,376.16c-3.118-2.726-7.856-2.408-10.584,0.71c-4.117,4.71-10.278,7.412-16.901,7.412
	c-6.623,0-12.784-2.702-16.901-7.412c-2.726-3.119-7.464-3.437-10.584-0.711c-3.119,2.726-3.437,7.464-0.711,10.584
	c6.966,7.969,17.244,12.541,28.196,12.541c10.952,0,21.229-4.57,28.195-12.541C286.921,383.625,286.603,378.886,283.484,376.16z"/>
<path d="M33.709,252.423H23.234c-12.302,0-22.31,10.009-22.31,22.31v19.997c0,10.528,7.332,19.369,17.156,21.702l44.852,101.482
	c12.903,29.193,41.864,48.057,73.78,48.057h238.576c31.917,0,60.878-18.863,73.78-48.057l44.852-101.483
	c9.824-2.333,17.156-11.175,17.156-21.702v-19.997c0-12.302-10.009-22.31-22.31-22.31h-10.477
	c17.131-26.676,28.581-53.565,33.317-78.441c2.835-14.888-10.095-28.615-25.126-26.677c-26.393,3.405-55.203,13.971-84.132,30.757
	c5.578-32.541,5.508-63.344-0.588-89.626c-3.414-14.72-20.838-22.072-33.764-14.245c-20.966,12.694-41.516,31.973-60.076,56.209
	c-7.57-29.186-18.957-54.958-33.598-75.161c-8.911-12.295-27.752-12.273-36.646,0c-14.641,20.202-26.029,45.975-33.599,75.161
	c-18.56-24.236-39.109-43.516-60.076-56.208c-13.018-7.881-30.342-0.513-33.764,14.245c-1.953,8.422-3.303,17.514-4.011,27.025
	c-0.308,4.13,2.792,7.729,6.922,8.037c4.138,0.308,7.729-2.792,8.037-6.922c0.651-8.748,1.884-17.074,3.665-24.75
	c1.156-4.987,7.003-7.451,11.382-4.802c22.224,13.457,44.123,35.121,63.473,62.767c-3.6,18.686-5.719,38.476-6.232,58.885
	c-0.172,3.434-0.134,6.875-0.13,10.313l-28.482-67.511c-1.61-3.816-6.007-5.605-9.827-3.995c-3.816,1.61-5.605,6.009-3.995,9.827
	l40.128,95.115h-43.576c-0.032-0.076-0.674-1.572-0.963-2.258c-7.655-18.168-13.913-36.943-18.365-56.155
	c-3.697-15.956-6.249-32.166-7.224-48.523c-0.24-4.135-3.788-7.292-7.922-7.052c-4.135,0.24-7.292,3.787-7.052,7.922
	c0.603,10.376,1.852,21.003,3.69,31.769c-28.964-16.822-57.812-27.41-84.238-30.819c-15.027-1.939-27.958,11.807-25.126,26.676
	C5.128,198.857,16.578,225.748,33.709,252.423z M488.766,267.424c4.03,0,7.309,3.279,7.309,7.309v19.997
	c0,4.03-3.279,7.308-7.309,7.309h-74.22c-4.044,0-7.5,3.448-7.5,7.5c0,4.06,3.448,7.5,7.5,7.5h62.705l-41.903,94.812
	c-10.503,23.764-34.078,39.119-60.06,39.119H136.711c-25.982,0-49.557-15.355-60.06-39.119l-41.903-94.812h349.842
	c4.065,0,7.5-3.431,7.5-7.5c0-4.047-3.446-7.5-7.5-7.5H23.233c-4.03,0-7.308-3.279-7.308-7.309v-19.997
	c0-4.03,3.279-7.309,7.309-7.309H488.766z M488.401,162.184c5.112-0.659,9.428,3.962,8.47,8.993
	c-4.854,25.497-17.484,53.517-36.593,81.247h-47.736l33.907-31.937c3.016-2.84,3.158-7.586,0.317-10.603
	c-2.84-3.016-7.586-3.157-10.603-0.317l-45.501,42.857h-9.988c0.111-0.27,0.213-0.541,0.323-0.811
	c7.077-17.354,12.901-35.231,17.23-53.468C428.966,178.477,460.886,165.734,488.401,162.184z M375.766,87.023
	c4.297-2.602,10.204-0.277,11.382,4.802c8.439,36.379,3.958,84.209-11.853,131.939c-3.213,9.702-6.86,19.266-10.89,28.659h-43.575
	l40.128-95.115c1.61-3.816-0.178-8.217-3.995-9.827c-3.817-1.61-8.215,0.179-9.827,3.995l-28.482,67.511
	c0.004-3.438-0.13-6.874-0.13-10.313c-0.513-20.409-2.633-40.199-6.232-58.885C331.643,122.145,353.542,100.48,375.766,87.023z
	 M249.822,64.044c1.459-2.014,3.71-3.168,6.177-3.168c2.466,0,4.717,1.155,6.176,3.168c22.603,31.188,37.274,78.94,40.703,130.893
	c1.267,19.158,0.986,38.373-0.83,57.486h-38.55V134.556c0-4.142-3.358-7.5-7.5-7.5c-4.142,0-7.5,3.358-7.5,7.5v117.866h-38.549
	c-1.81-19.087-2.099-38.355-0.83-57.486C212.548,142.984,227.22,95.231,249.822,64.044z M16.726,164.88
	c1.673-2.022,4.232-3.037,6.871-2.696c27.534,3.552,59.478,16.31,90.232,35.998c0.925,3.911,1.929,7.804,2.99,11.681
	c3.962,14.468,8.817,28.681,14.503,42.561h-9.988l-45.501-42.857c-3.014-2.84-7.761-2.698-10.603,0.317
	c-2.84,3.015-2.698,7.762,0.317,10.603l33.907,31.937H51.721c-19.109-27.73-31.738-55.751-36.593-81.248
	C14.54,168.089,15.877,165.907,16.726,164.88z"/>
<g>
</g>
<g>
</g>
<g>
</g>
<g>
</g>
<g>
</g>
<g>
</g>
<g>
</g>
<g>
</g>
<g>
</g>
<g>
</g>
<g>
</g>
<g>
</g>
<g>
</g>
<g>
</g>
<g>
</g>
</svg>
